<?xml version="1.0" ?>
<!-- Uploaded to: SVG Repo, www.svgrepo.com, Generator: SVG Repo Mixer Tools -->
<svg width="800px" height="800px" viewBox="0 0 120 120" id="Layer_1" version="1.1" xml:space="preserve" xmlns="http://www.w3.org/2000/svg" xmlns:xlink="http://www.w3.org/1999/xlink">
<style type="text/css">
	.st0{fill:#F68989;}
	.st1{opacity:0.1;}
	.st2{fill:#C65D7B;}
	.st3{fill:#874356;}
</style>
<path class="st0" d="M17.8,57.2l6.9,34.1c0.7,3.6,4.4,6.3,8.6,6.3h53.4c4.3,0,7.9-2.7,8.6-6.3l6.9-34.1H17.8z M47.4,88  c0,1-0.8,1.8-1.8,1.8h-4.2c-1,0-1.8-0.8-1.8-1.8V66.7c0-1,0.8-1.8,1.8-1.8h4.2c1,0,1.8,0.8,1.8,1.8V88z M63.9,88  c0,1-0.8,1.8-1.8,1.8h-4.2c-1,0-1.8-0.8-1.8-1.8V66.7c0-1,0.8-1.8,1.8-1.8h4.2c1,0,1.8,0.8,1.8,1.8V88z M80.5,88  c0,1-0.8,1.8-1.8,1.8h-4.2c-1,0-1.8-0.8-1.8-1.8V66.7c0-1,0.8-1.8,1.8-1.8h4.2c1,0,1.8,0.8,1.8,1.8V88z"/>
<g class="st1">
<path d="M89.1,96.7H35.7c-4.3,0-7.9-2.7-8.6-6.3l-6.7-33.2h-2.5l6.9,34.1c0.7,3.6,4.4,6.3,8.6,6.3h53.4c1.6,0,3.2-0.4,4.5-1.1   C90.5,96.6,89.8,96.7,89.1,96.7z"/>
</g>
<path class="st2" d="M105.4,57.2H14.6c-1,0-1.8-0.8-1.8-1.8v-6.6c0-1,0.8-1.8,1.8-1.8h90.9c1,0,1.8,0.8,1.8,1.8v6.6  C107.3,56.4,106.4,57.2,105.4,57.2z"/>
<path class="st1" d="M15.9,56.8c-1,0-1.8-0.8-1.8-1.8v-6.6c0-0.6,0.3-1.1,0.7-1.4h-0.2c-1,0-1.8,0.8-1.8,1.8v6.6  c0,1,0.8,1.8,1.8,1.8h90.9c0.4,0,0.8-0.2,1.1-0.4H15.9z"/>
<path class="st3" d="M64.6,22.7L61,24.9c-0.9,0.5-0.9,2-0.2,3.2L77,54.8c0.8,1.3,2.1,1.9,2.9,1.3l3.6-2.2c0.9-0.5,0.9-2,0.2-3.2  L67.6,24C66.8,22.7,65.5,22.1,64.6,22.7z"/>
<path class="st3" d="M55.4,22.7l3.6,2.2c0.9,0.5,0.9,2,0.2,3.2L43,54.8c-0.8,1.3-2.1,1.9-2.9,1.3L36.5,54c-0.9-0.5-0.9-2-0.2-3.2  L52.4,24C53.2,22.8,54.5,22.2,55.4,22.7z"/>
<path class="st1" d="M59.2,27.4L43.1,54.1c-0.8,1.3-2.1,1.9-2.9,1.3l-3.6-2.2c-0.4-0.2-0.6-0.7-0.7-1.2c-0.1,0.8,0.1,1.5,0.7,1.9  l3.6,2.2c0.9,0.5,2.2-0.1,2.9-1.3l16.1-26.7c0.4-0.7,0.6-1.4,0.5-2.1C59.6,26.5,59.4,27,59.2,27.4z"/>
<path class="st1" d="M60.8,27.4l16.1,26.7c0.8,1.3,2.1,1.9,2.9,1.3l3.6-2.2c0.4-0.2,0.6-0.7,0.7-1.2c0.1,0.8-0.1,1.5-0.7,1.9  l-3.6,2.2c-0.9,0.5-2.2-0.1-2.9-1.3L60.8,28.1c-0.4-0.7-0.6-1.4-0.5-2.1C60.4,26.5,60.6,27,60.8,27.4z"/>
<g>
<path class="st0" d="M40,50.2c-1,0-1.9,0.8-1.9,1.9c0,1,0.8,1.9,1.9,1.9c1,0,1.9-0.8,1.9-1.9C41.8,51,41,50.2,40,50.2z"/>
<path class="st0" d="M80,50.2c-1,0-1.9,0.8-1.9,1.9c0,1,0.8,1.9,1.9,1.9s1.9-0.8,1.9-1.9C81.9,51,81.1,50.2,80,50.2z"/>
</g>
<path class="st1" d="M40.2,53.7c-1,0-1.9-0.8-1.9-1.9c0-0.5,0.2-1,0.6-1.4c-0.5,0.3-0.8,0.9-0.8,1.6c0,1,0.8,1.9,1.9,1.9  c0.5,0,0.9-0.2,1.3-0.5C40.9,53.6,40.6,53.7,40.2,53.7z"/>
<path class="st1" d="M80.3,53.7c-1,0-1.9-0.8-1.9-1.9c0-0.5,0.2-1,0.6-1.4c-0.5,0.3-0.8,0.9-0.8,1.6c0,1,0.8,1.9,1.9,1.9  c0.5,0,0.9-0.2,1.3-0.5C81,53.6,80.7,53.7,80.3,53.7z"/>
</svg>