<?xml version="1.0" encoding="iso-8859-1"?>
<!-- Generator: Adobe Illustrator 19.0.0, SVG Export Plug-In . SVG Version: 6.00 Build 0)  -->
<svg version="1.1" id="Layer_1" xmlns="http://www.w3.org/2000/svg" xmlns:xlink="http://www.w3.org/1999/xlink" x="0px" y="0px"
	 viewBox="0 0 512 512" style="enable-background:new 0 0 512 512;" xml:space="preserve">
<circle style="fill:#FFFFFF;" cx="255.977" cy="255.998" r="170.303"/>
<circle style="fill:#FAFBFB;" cx="255.977" cy="255.998" r="123.287"/>
<path style="fill:#08C5FF;" d="M43.882,277.199v110.408c0,9.107-7.523,16.557-16.717,16.557l0,0
	c-9.194,0-16.717-7.451-16.717-16.557V277.199H43.882z"/>
<path style="fill:#FAFBFB;" d="M10.448,277.199V107.837c0,0,33.434,7.836,33.434,40.747s0,128.614,0,128.614H10.448z"/>
<path style="fill:#08C5FF;" d="M490.237,277.199v110.408c0,9.107-7.523,16.557-16.717,16.557l0,0
	c-9.194,0-16.717-7.451-16.717-16.557V277.199H490.237z"/>
<path d="M255.977,75.249C156.31,75.249,75.226,156.333,75.226,256s81.084,180.751,180.751,180.751S436.728,355.667,436.728,256
	S355.644,75.249,255.977,75.249z M255.977,415.855c-88.144,0-159.855-71.711-159.855-159.855S167.833,96.145,255.977,96.145
	S415.832,167.856,415.832,256S344.121,415.855,255.977,415.855z"/>
<path d="M490.226,219.735c12.006,0,21.774-9.764,21.774-21.776l-0.064-69.599c-0.005-5.767-4.682-10.439-10.448-10.439
	c-0.003,0-0.006,0-0.009,0c-5.77,0.005-10.444,4.687-10.439,10.457l0.064,69.589c0,0.48-0.394,0.87-0.878,0.87H484.1V128.37
	c0-5.77-4.679-10.448-10.448-10.448s-10.448,4.678-10.448,10.448v70.469h-6.197c-0.484,0-0.878-0.391-0.878-0.879l-0.063-69.599
	c-0.005-5.767-4.682-10.439-10.448-10.439c-0.003,0-0.006,0-0.009,0c-5.77,0.005-10.444,4.687-10.439,10.457l0.063,69.589
	c0,12.002,9.768,21.766,21.774,21.766h6.197v47.016h-6.4c-5.769,0-10.448,4.678-10.448,10.448v110.408
	c0,14.889,12.186,27.004,27.165,27.004s27.165-12.115,27.165-27.004V277.199c0-5.77-4.679-10.448-10.448-10.448H484.1v-47.016
	L490.226,219.735L490.226,219.735z M479.789,387.607c0,3.311-2.871,6.108-6.269,6.108c-3.398,0-6.269-2.797-6.269-6.108v-99.96
	h12.538V387.607z"/>
<path d="M12.832,97.665c-3.107-0.726-6.375,0.003-8.875,1.985C1.459,101.631,0,104.648,0,107.837v279.769
	c0,14.89,12.186,27.004,27.165,27.004s27.165-12.115,27.165-27.004V148.585C54.33,116,27.186,101.028,12.832,97.665z M21.52,124.688
	c8.017,6.031,11.914,13.847,11.914,23.897v118.166H20.896V124.229C21.104,124.379,21.312,124.532,21.52,124.688z M33.434,387.607
	c0,3.311-2.871,6.108-6.269,6.108s-6.269-2.797-6.269-6.108v-99.96h12.538V387.607z"/>
<path d="M255.977,160.6c-5.769,0-10.448,4.678-10.448,10.448s4.679,10.448,10.448,10.448c31.605,0,59.867,20.025,70.325,49.828
	c1.508,4.3,5.546,6.992,9.859,6.992c1.148,0,2.315-0.191,3.459-0.592c5.446-1.911,8.31-7.873,6.4-13.318
	C332.628,186.242,296.442,160.6,255.977,160.6z"/>
<path d="M330.482,255.922V256c0,5.77,4.679,10.408,10.448,10.408s10.448-4.716,10.448-10.487s-4.679-10.448-10.448-10.448
	S330.482,250.151,330.482,255.922z"/>
<path d="M255.976,122.265c-73.713,0-133.683,59.971-133.683,133.685c0,29.337,9.325,57.182,26.967,80.528
	c17.061,22.577,41.312,39.462,68.282,47.546c5.526,1.657,11.351-1.48,13.008-7.009c1.657-5.527-1.482-11.351-7.009-13.008
	c-47.311-14.179-80.353-58.613-80.353-108.057c0-62.192,50.597-112.789,112.787-112.789c62.192,0,112.789,50.597,112.789,112.789
	c0,49.444-33.043,93.88-80.355,108.058c-5.528,1.656-8.666,7.48-7.01,13.008c1.357,4.527,5.508,7.452,10.004,7.452
	c0.993,0,2.003-0.143,3.003-0.442c26.973-8.083,51.224-24.968,68.285-47.545c17.643-23.346,26.968-51.192,26.968-80.529
	C389.661,182.236,329.69,122.265,255.976,122.265z"/>
<path d="M255.973,368.726c-5.769,0-10.448,4.678-10.448,10.448v0.113c0,5.77,4.679,10.448,10.448,10.448
	c5.769,0,10.448-4.678,10.448-10.448v-0.113C266.421,373.404,261.743,368.726,255.973,368.726z"/>
<g>
</g>
<g>
</g>
<g>
</g>
<g>
</g>
<g>
</g>
<g>
</g>
<g>
</g>
<g>
</g>
<g>
</g>
<g>
</g>
<g>
</g>
<g>
</g>
<g>
</g>
<g>
</g>
<g>
</g>
</svg>
