<?xml version="1.0" encoding="iso-8859-1"?>
<!-- Generator: Adobe Illustrator 19.0.0, SVG Export Plug-In . SVG Version: 6.00 Build 0)  -->
<svg version="1.1" id="Layer_1" xmlns="http://www.w3.org/2000/svg" xmlns:xlink="http://www.w3.org/1999/xlink" x="0px" y="0px"
	 viewBox="0 0 512 512" style="enable-background:new 0 0 512 512;" xml:space="preserve">
<g>
	<g>
		<path d="M504.868,183.865c0-60.312-49.068-109.378-109.38-109.378c-4.974,0-9.931,0.336-14.836,1.002
			C356.543,29.249,308.869,0,256,0S155.457,29.249,131.348,75.488c-4.904-0.665-9.863-1.002-14.836-1.002
			c-60.313,0-109.38,49.068-109.38,109.378c0,51.651,35.531,95.271,84.625,106.523v103.744c-0.039,0.444-0.068,0.89-0.068,1.343
			V496.91c0,8.333,6.757,15.09,15.09,15.09H405.22c8.333,0,15.09-6.757,15.09-15.09V395.474c0-0.453-0.029-0.899-0.068-1.343
			V290.387C469.338,279.134,504.868,235.515,504.868,183.865z M390.132,481.82H121.868v-71.256h43.592v23.578
			c0,8.333,6.757,15.09,15.09,15.09s15.09-6.757,15.09-15.09v-23.578h120.72v23.578c0,8.333,6.757,15.09,15.09,15.09
			s15.09-6.757,15.09-15.09v-23.578h43.592V481.82z M403.624,262.596c-7.702,0.785-13.56,7.27-13.56,15.011v102.775H346.54V332.66
			c0-8.333-6.757-15.09-15.09-15.09s-15.09,6.757-15.09,15.09v47.722h-45.27V287.39c0-8.333-6.757-15.09-15.09-15.09
			s-15.09,6.757-15.09,15.09v92.992h-45.27V332.66c0-8.333-6.757-15.09-15.09-15.09s-15.09,6.757-15.09,15.09v47.722h-43.524
			V277.607c0-7.741-5.858-14.228-13.56-15.011c-40.514-4.129-71.065-37.975-71.065-78.73c0-43.67,35.529-79.198,79.2-79.198
			c6.695,0,13.344,0.836,19.762,2.484c7.267,1.864,14.809-1.897,17.688-8.832C171.146,56.927,211.198,30.18,256,30.18
			c44.802,0,84.852,26.747,102.038,68.137c2.878,6.934,10.418,10.697,17.687,8.832c6.419-1.648,13.068-2.484,19.763-2.484
			c43.67,0,79.2,35.528,79.2,79.198C474.689,224.619,444.137,258.466,403.624,262.596z"/>
	</g>
</g>
<g>
	<g>
		<path d="M334.076,108.265C320.926,76.589,290.28,56.121,256,56.121s-64.926,20.467-78.076,52.143
			c-3.196,7.697,0.453,16.527,8.15,19.721c7.697,3.193,16.527-0.451,19.721-8.15C214.252,99.464,233.96,86.301,256,86.301
			s41.746,13.163,50.204,33.534c2.41,5.807,8.025,9.309,13.942,9.309c1.927,0,3.889-0.373,5.779-1.159
			C333.623,124.791,337.273,115.96,334.076,108.265z"/>
	</g>
</g>
<g>
	<g>
		<path d="M195.337,284.445c-0.196-0.967-0.483-1.918-0.86-2.822c-0.377-0.907-0.845-1.796-1.388-2.611
			c-0.542-0.83-1.176-1.599-1.871-2.294c-3.499-3.501-8.721-5.117-13.611-4.12c-0.966,0.196-1.916,0.483-2.822,0.86
			c-0.921,0.377-1.794,0.845-2.609,1.388c-0.831,0.543-1.601,1.177-2.295,1.871c-0.694,0.694-1.328,1.464-1.871,2.294
			c-0.542,0.815-1.011,1.705-1.388,2.611s-0.679,1.855-0.875,2.822c-0.196,0.966-0.285,1.962-0.285,2.941
			c0,0.981,0.091,1.978,0.285,2.958c0.196,0.967,0.498,1.903,0.875,2.822c0.377,0.907,0.847,1.782,1.388,2.597
			c0.543,0.83,1.177,1.6,1.871,2.294c0.694,0.709,1.464,1.328,2.295,1.886c0.815,0.543,1.689,1.011,2.609,1.388
			c0.907,0.377,1.856,0.664,2.822,0.86c0.966,0.196,1.962,0.285,2.943,0.285c0.979,0,1.977-0.091,2.943-0.285
			c0.966-0.196,1.916-0.483,2.837-0.86c0.905-0.377,1.781-0.845,2.595-1.388c0.83-0.558,1.6-1.177,2.294-1.886
			c0.696-0.694,1.329-1.464,1.871-2.294c0.543-0.815,1.011-1.69,1.388-2.597c0.377-0.919,0.664-1.855,0.86-2.822
			c0.196-0.979,0.302-1.977,0.302-2.958C195.639,286.406,195.533,285.409,195.337,284.445z"/>
	</g>
</g>
<g>
	<g>
		<path d="M346.237,284.443c-0.196-0.967-0.483-1.918-0.86-2.822c-0.377-0.907-0.845-1.796-1.388-2.611
			c-0.542-0.83-1.175-1.6-1.871-2.294c-0.694-0.694-1.464-1.328-2.294-1.871c-0.815-0.543-1.69-1.011-2.611-1.388
			c-0.905-0.377-1.855-0.664-2.82-0.86c-1.947-0.391-3.938-0.391-5.885,0c-0.966,0.196-1.916,0.483-2.822,0.86
			c-0.92,0.377-1.794,0.845-2.609,1.388c-0.831,0.543-1.601,1.177-2.295,1.871c-0.694,0.694-1.328,1.464-1.871,2.294
			c-0.542,0.815-1.011,1.705-1.388,2.611s-0.679,1.855-0.875,2.822c-0.196,0.966-0.285,1.962-0.285,2.941
			c0,0.981,0.091,1.978,0.285,2.958c0.196,0.967,0.498,1.903,0.875,2.822c0.377,0.907,0.847,1.782,1.388,2.597
			c0.543,0.83,1.177,1.599,1.871,2.294c0.694,0.709,1.464,1.328,2.295,1.886c0.815,0.543,1.689,1.011,2.609,1.388
			c0.907,0.377,1.856,0.664,2.822,0.86c0.966,0.196,1.962,0.285,2.943,0.285c0.979,0,1.977-0.091,2.943-0.285
			c0.966-0.196,1.916-0.483,2.82-0.86c0.92-0.377,1.796-0.845,2.611-1.388c0.83-0.558,1.6-1.177,2.294-1.886
			c0.696-0.694,1.329-1.464,1.871-2.294c0.543-0.815,1.011-1.69,1.388-2.597c0.377-0.919,0.664-1.855,0.86-2.822
			c0.196-0.979,0.302-1.977,0.302-2.958C346.538,286.405,346.433,285.407,346.237,284.443z"/>
	</g>
</g>
<g>
	<g>
		<path d="M270.805,431.195c-0.198-0.967-0.501-1.916-0.878-2.822c-0.377-0.907-0.845-1.796-1.388-2.611
			c-0.542-0.83-1.176-1.6-1.871-2.294c-0.694-0.694-1.464-1.328-2.294-1.871c-0.815-0.543-1.69-1.011-2.611-1.388
			c-0.905-0.377-1.855-0.664-2.82-0.86c-1.947-0.392-3.938-0.392-5.885,0c-0.966,0.196-1.916,0.483-2.822,0.86
			c-0.92,0.377-1.794,0.845-2.609,1.388c-0.831,0.543-1.601,1.177-2.295,1.871c-0.694,0.694-1.328,1.464-1.871,2.294
			c-0.558,0.815-1.011,1.705-1.388,2.611c-0.377,0.905-0.679,1.855-0.875,2.822c-0.196,0.979-0.285,1.962-0.285,2.958
			c0,3.969,1.613,7.845,4.421,10.667c0.694,0.694,1.464,1.328,2.295,1.871c0.815,0.543,1.689,1.011,2.609,1.388
			c0.907,0.377,1.856,0.664,2.822,0.86s1.962,0.285,2.943,0.285c0.979,0,1.977-0.091,2.943-0.285c0.966-0.196,1.916-0.483,2.82-0.86
			c0.921-0.377,1.796-0.845,2.611-1.388c0.83-0.543,1.6-1.177,2.294-1.871c2.807-2.822,4.423-6.698,4.423-10.667
			C271.092,433.156,270.999,432.174,270.805,431.195z"/>
	</g>
</g>
<g>
</g>
<g>
</g>
<g>
</g>
<g>
</g>
<g>
</g>
<g>
</g>
<g>
</g>
<g>
</g>
<g>
</g>
<g>
</g>
<g>
</g>
<g>
</g>
<g>
</g>
<g>
</g>
<g>
</g>
</svg>
